<svg xmlns="http://www.w3.org/2000/svg" viewBox="0 0 512 512" width="512" height="512">
    <rect width="512" height="512" rx="115" fill="#2c3e50"/>
    
    <path d="M256 448l-30.1-27.4C118.6 323.8 48 259.6 48 179.2 48 114.6 98.6 64 163.2 64c36.7 0 71.8 17.2 92.8 44.5C277 81.2 312.1 64 348.8 64 413.4 64 464 114.6 464 179.2c0 80.4-70.6 144.6-177.9 241.4L256 448z" fill="#e74c3c"/>
    
    <path d="M316 226h-30v-30c0-16.6-13.4-30-30-30s-30 13.4-30 30v30h-30c-16.6 0-30 13.4-30 30s13.4 30 30 30h30v30c0 16.6 13.4 30 30 30s30-13.4 30-30v-30h30c16.6 0 30-13.4 30-30s-13.4-30-30-30z" fill="#ffffff"/>
</svg>
